<?xml version="1.0" encoding="UTF-8" standalone="no"?>
<!-- Created with Inkscape (http://www.inkscape.org/) -->

<svg
   width="210mm"
   height="297mm"
   viewBox="0 0 210 297"
   version="1.1"
   id="svg5"
   inkscape:version="1.1.2 (b8e25be8, 2022-02-05)"
   sodipodi:docname="f22icon.svg"
   xmlns:inkscape="http://www.inkscape.org/namespaces/inkscape"
   xmlns:sodipodi="http://sodipodi.sourceforge.net/DTD/sodipodi-0.dtd"
   xmlns="http://www.w3.org/2000/svg"
   xmlns:svg="http://www.w3.org/2000/svg">
  <sodipodi:namedview
     id="namedview7"
     pagecolor="#505050"
     bordercolor="#eeeeee"
     borderopacity="1"
     inkscape:pageshadow="0"
     inkscape:pageopacity="0"
     inkscape:pagecheckerboard="0"
     inkscape:document-units="mm"
     showgrid="false"
     inkscape:zoom="0.50065937"
     inkscape:cx="274.63782"
     inkscape:cy="561.25984"
     inkscape:window-width="1439"
     inkscape:window-height="784"
     inkscape:window-x="0"
     inkscape:window-y="25"
     inkscape:window-maximized="0"
     inkscape:current-layer="layer1" />
  <defs
     id="defs2" />
  <g
     inkscape:label="Layer 1"
     inkscape:groupmode="layer"
     id="layer1">
    <path
       style="fill:#ffffff;fill-opacity:1;stroke-width:0.999998"
       d="m 69.083113,199.90139 c -0.14958,-0.0549 -3.780318,-1.28193 -8.068307,-2.72671 -4.287988,-1.44477 -7.939123,-2.75229 -8.113635,-2.90559 -0.290801,-0.25544 -0.317292,-0.80718 -0.317292,-6.60839 0,-3.84337 0.07072,-6.46181 0.180044,-6.66607 0.09902,-0.18506 4.117313,-3.43071 8.929531,-7.21261 4.812217,-3.78191 8.85732,-7.00614 8.989115,-7.16495 0.205405,-0.24752 0.134199,-0.42213 -0.498604,-1.22269 -0.406026,-0.51366 -0.73823,-1.08549 -0.73823,-1.27072 0,-0.2743 -0.479417,-0.48801 -2.583672,-1.15173 -5.005541,-1.57884 -10.29809,-3.19202 -19.971219,-6.0873 -5.374884,-1.60873 -9.943902,-3.04431 -10.153375,-3.19015 -0.209474,-0.14583 -2.155218,-1.86617 -4.323874,-3.82298 -3.394556,-3.06295 -3.970034,-3.65817 -4.13727,-4.27923 -0.123597,-0.45901 -0.173237,-2.58889 -0.136468,-5.85553 0.05472,-4.8611 0.07779,-5.16131 0.433859,-5.64562 0.40282,-0.54788 6.827309,-6.44518 30.084056,-27.61531 14.215154,-12.939762 16.678693,-15.318065 17.989309,-17.366891 1.317045,-2.058875 1.482866,-3.069259 2.506219,-15.271057 0.447443,-5.335053 0.900295,-10.350161 1.006335,-11.144686 0.355016,-2.659991 0.7358,-3.198506 4.133522,-5.845717 3.606121,-2.809578 6.123163,-4.973509 6.353865,-5.462489 0.193296,-0.409699 0.623516,-5.211941 1.553861,-17.344715 0.842503,-10.987186 1.800981,-17.054354 3.90051,-24.6902295 0.9658,-3.5125654 2.743314,-7.9604341 3.680121,-9.20875893 0.250656,-0.33400097 0.336936,-0.21341278 1.362166,1.90375763 2.72464,5.6265613 4.74505,13.9190408 6.00633,24.6521638 0.0996,0.847627 0.38694,4.192803 0.63851,7.433724 0.98718,12.717261 1.37491,17.087075 1.54415,17.40331 0.18381,0.343452 4.02213,3.579555 6.74415,5.686014 1.93036,1.493822 3.15876,2.831997 3.40922,3.71389 0.32877,1.157614 0.51761,2.960983 1.35959,12.983759 0.88084,10.4854 0.98883,11.410364 1.54092,13.197814 0.80144,2.59476 2.40351,4.373031 10.97106,12.177606 14.7484,13.435035 36.34927,33.125445 37.23043,33.937635 0.78088,0.71978 0.99875,1.05057 1.12528,1.7085 0.24507,1.27413 0.19284,10.12605 -0.0641,10.87325 -0.15805,0.45954 -1.19435,1.5255 -3.8426,3.95261 -1.99442,1.82784 -3.91257,3.52111 -4.26255,3.76279 -0.41749,0.28831 -4.87569,1.71607 -12.96368,4.15167 -6.78005,2.04171 -13.99994,4.2361 -16.04421,4.8764 l -3.71687,1.16421 -0.33934,0.7036 c -0.18665,0.38701 -0.5742,0.97163 -0.86123,1.29919 -0.28702,0.32756 -0.52187,0.64085 -0.52187,0.69618 0,0.15411 0.22634,0.33622 9.45534,7.60776 5.35245,4.21718 8.67989,6.9578 8.74576,7.20336 0.0584,0.21802 0.10739,3.18501 0.10876,6.5933 0.002,5.0859 -0.0433,6.24264 -0.25254,6.45193 -0.34523,0.34523 -16.48104,5.79926 -16.9331,5.72353 -0.1971,-0.033 -2.99875,-2.46695 -6.22587,-5.40871 -3.22713,-2.94176 -6.68342,-6.08988 -7.68067,-6.99584 l -1.81316,-1.64718 -0.1093,-9.95667 c -0.12748,-11.61224 -0.22666,-12.9483 -0.96122,-12.9483 -0.35331,0 -0.45842,0.91328 -0.58428,5.0767 -0.11234,3.71619 -0.11244,3.71693 -0.58861,4.1586 -0.26194,0.24295 -1.38985,1.33567 -2.50647,2.42827 l -2.03024,1.98654 -2.61521,-2.47773 -2.61521,-2.47773 -0.09,-4.03003 c -0.0876,-3.92065 -0.18424,-4.7694 -0.51947,-4.56222 -0.0925,0.0571 -0.16338,4.63908 -0.16479,10.65094 -0.001,5.80285 -0.0517,10.7342 -0.1118,10.95857 -0.1016,0.37913 -0.20989,0.40795 -1.53229,0.40795 -1.22127,0 -1.449558,-0.0498 -1.610644,-0.35071 -0.123301,-0.23039 -0.187689,-4.0245 -0.187689,-11.05991 0,-9.72281 -0.09466,-11.95878 -0.42842,-10.11997 -0.05883,0.32408 -0.162142,2.28075 -0.229589,4.34816 l -0.122632,3.75889 -2.42797,2.40566 c -1.335382,1.32309 -2.500354,2.40564 -2.588822,2.40564 -0.08847,0 -1.29743,-1.07678 -2.686576,-2.39284 l -2.525721,-2.39283 -0.09467,-4.04366 c -0.05206,-2.22405 -0.153679,-4.18648 -0.225806,-4.36099 -0.203284,-0.49186 -0.798586,-0.38678 -1.027276,0.1813 -0.135293,0.3361 -0.230301,4.06504 -0.291482,11.44037 -0.08986,10.83195 -0.09462,10.94586 -0.474711,11.35305 -0.211168,0.22622 -2.015736,1.87728 -4.010148,3.66904 -1.994412,1.79178 -5.291001,4.78066 -7.32575,6.64199 -3.608571,3.30104 -3.956271,3.54029 -4.731385,3.25582 z"
       id="path1816"
       inkscape:export-filename="/Users/kmedina/Desktop/f22icon_new.png"
       inkscape:export-xdpi="65.024002"
       inkscape:export-ydpi="65.024002" />
  </g>
</svg>
