<?xml version="1.0" encoding="UTF-8" standalone="no"?>
<!-- Created with Inkscape (http://www.inkscape.org/) -->

<svg
   width="210mm"
   height="297mm"
   viewBox="0 0 210 297"
   version="1.1"
   id="svg5"
   inkscape:version="1.1.2 (b8e25be8, 2022-02-05)"
   sodipodi:docname="f22icon.svg"
   xmlns:inkscape="http://www.inkscape.org/namespaces/inkscape"
   xmlns:sodipodi="http://sodipodi.sourceforge.net/DTD/sodipodi-0.dtd"
   xmlns="http://www.w3.org/2000/svg"
   xmlns:svg="http://www.w3.org/2000/svg">
  <sodipodi:namedview
     id="namedview7"
     pagecolor="#505050"
     bordercolor="#eeeeee"
     borderopacity="1"
     inkscape:pageshadow="0"
     inkscape:pageopacity="0"
     inkscape:pagecheckerboard="0"
     inkscape:document-units="mm"
     showgrid="false"
     inkscape:zoom="0.50065937"
     inkscape:cx="274.63782"
     inkscape:cy="561.25984"
     inkscape:window-width="1439"
     inkscape:window-height="784"
     inkscape:window-x="0"
     inkscape:window-y="25"
     inkscape:window-maximized="0"
     inkscape:current-layer="layer1" />
  <defs
     id="defs2">
    <linearGradient
       id="linearGradient974"
       inkscape:swatch="solid">
      <stop
         style="stop-color:#ffffff;stop-opacity:1;"
         offset="0"
         id="stop972" />
    </linearGradient>
  </defs>
  <g
     inkscape:label="Layer 1"
     inkscape:groupmode="layer"
     id="layer1">
    <path
       style="fill:#ffffff;fill-opacity:1;stroke:#ffffff;stroke-width:0;stroke-miterlimit:4;stroke-dasharray:none;stroke-opacity:1"
       d="m 69.317128,199.14252 c -0.148448,-0.0545 -3.751703,-1.27226 -8.007235,-2.70613 -4.25553,-1.43386 -7.879029,-2.73152 -8.052219,-2.88366 -0.2886,-0.25351 -0.314891,-0.80109 -0.314891,-6.55852 0,-3.81436 0.07019,-6.41303 0.178681,-6.61575 0.09827,-0.18366 4.086148,-3.40481 8.861941,-7.15817 4.775791,-3.75336 8.790274,-6.95326 8.921072,-7.11087 0.20385,-0.24565 0.133183,-0.41894 -0.49483,-1.21346 -0.402953,-0.50978 -0.732642,-1.0773 -0.732642,-1.26113 0,-0.27223 -0.475788,-0.48433 -2.564115,-1.14304 -4.967652,-1.56692 -10.22014,-3.16793 -19.820049,-6.04136 -5.334199,-1.59658 -9.868631,-3.02132 -10.076519,-3.16606 -0.207888,-0.14473 -2.138904,-1.85209 -4.291145,-3.79413 -3.368861,-3.03983 -3.939983,-3.63055 -4.105953,-4.24693 -0.122661,-0.45555 -0.171925,-2.56935 -0.135435,-5.81133 0.05431,-4.82441 0.0772,-5.12235 0.430575,-5.60301 0.399771,-0.54375 6.775631,-6.39653 29.856337,-27.40688 14.107553,-12.842096 16.552445,-15.202448 17.85314,-17.235809 1.307075,-2.043335 1.471642,-3.046093 2.487249,-15.155794 0.444056,-5.294786 0.89348,-10.272041 0.998717,-11.060569 0.352329,-2.639914 0.73023,-3.174364 4.102234,-5.801594 3.578824,-2.788373 6.076814,-4.935971 6.305769,-5.42126 0.191834,-0.406606 0.618797,-5.172602 1.5421,-17.213801 0.836125,-10.904256 1.787349,-16.925631 3.870984,-24.503873 0.95849,-3.486053 2.722549,-7.9003501 3.652265,-9.13925287 0.248761,-0.33148 0.334391,-0.21180199 1.351861,1.88938847 2.70401,5.5840932 4.70913,13.8139824 5.96086,24.4660944 0.0988,0.841229 0.38402,4.161157 0.63368,7.377616 0.97971,12.621274 1.3645,16.958105 1.53246,17.271954 0.18242,0.340859 3.99168,3.552537 6.6931,5.643097 1.91575,1.482547 3.13485,2.810621 3.38342,3.685858 0.32628,1.148876 0.51369,2.938634 1.34929,12.885761 0.87417,10.406258 0.98135,11.32424 1.52926,13.098199 0.79538,2.575176 2.38532,4.340024 10.88801,12.085692 14.63677,13.333633 36.07414,32.875423 36.94862,33.681483 0.77497,0.71435 0.99119,1.04264 1.11676,1.69561 0.24322,1.26451 0.19138,10.04961 -0.0636,10.79118 -0.15685,0.45607 -1.18531,1.51398 -3.81352,3.92278 -1.97931,1.81404 -3.88295,3.49453 -4.23028,3.73439 -0.41433,0.28613 -4.83878,1.70311 -12.86555,4.12033 -6.72873,2.02629 -13.89397,4.20413 -15.92276,4.83959 l -3.68874,1.15542 -0.33678,0.69829 c -0.18523,0.3841 -0.56985,0.9643 -0.85471,1.28939 -0.28484,0.32509 -0.51792,0.63601 -0.51792,0.69092 0,0.15295 0.22463,0.33368 9.38378,7.55034 5.31193,4.18535 8.61418,6.90529 8.67956,7.14899 0.058,0.21638 0.10657,3.16097 0.10793,6.54353 0.002,5.04752 -0.043,6.19553 -0.25063,6.40324 -0.34261,0.34262 -16.35628,5.75549 -16.80493,5.68033 -0.19561,-0.0327 -2.97604,-2.44833 -6.17874,-5.36789 -3.2027,-2.91956 -6.63283,-6.04391 -7.62253,-6.94304 l -1.79944,-1.63474 -0.10847,-9.88153 c -0.12652,-11.52459 -0.22494,-12.85056 -0.95394,-12.85056 -0.35064,0 -0.45495,0.90638 -0.57986,5.03838 -0.11149,3.68814 -0.11159,3.68887 -0.58415,4.12721 -0.25996,0.24112 -1.37934,1.32559 -2.4875,2.40994 l -2.01487,1.97156 -2.59542,-2.45904 -2.59541,-2.45903 -0.0893,-3.99961 c -0.0869,-3.89106 -0.18285,-4.7334 -0.51554,-4.52778 -0.0918,0.0567 -0.16214,4.60406 -0.16354,10.57055 -9.9e-4,5.75904 -0.0513,10.65318 -0.11096,10.87586 -0.10083,0.37626 -0.2083,0.40487 -1.52069,0.40487 -1.212024,0 -1.438583,-0.0494 -1.59845,-0.34807 -0.122368,-0.22865 -0.186268,-3.99412 -0.186268,-10.97643 0,-9.64943 -0.09394,-11.86852 -0.425177,-10.04359 -0.05839,0.32163 -0.160915,2.26354 -0.227852,4.31534 l -0.121703,3.73052 -2.409592,2.3875 c -1.325273,1.3131 -2.481427,2.38749 -2.569225,2.38749 -0.0878,0 -1.287609,-1.06866 -2.66624,-2.37478 l -2.506604,-2.37478 -0.09395,-4.01313 c -0.05167,-2.20726 -0.152515,-4.15488 -0.224096,-4.32808 -0.201746,-0.48814 -0.792541,-0.38386 -1.0195,0.17993 -0.134269,0.33357 -0.228559,4.03436 -0.289276,11.35403 -0.08918,10.75019 -0.0939,10.86324 -0.471118,11.26736 -0.20957,0.22451 -2.000478,1.86311 -3.979793,3.64134 -1.979315,1.77825 -5.250952,4.74458 -7.270299,6.59186 -3.581256,3.27613 -3.926324,3.51357 -4.695571,3.23125 z"
       id="path1816"
       inkscape:export-filename="/Users/kmedina/Desktop/f22icon_new.png"
       inkscape:export-xdpi="65.024002"
       inkscape:export-ydpi="65.024002" />
  </g>
</svg>
